<svg width="26" height="26" viewBox="0 0 26 26" fill="none" xmlns="http://www.w3.org/2000/svg">
<g clip-path="url(#clip0_2_268)">
<path d="M13 24.7577C13.455 24.7473 13.8916 24.5762 14.2326 24.2749C14.5736 23.9735 14.797 23.5613 14.8633 23.1111H11.0645C11.1327 23.5735 11.3666 23.9955 11.7226 24.2984C12.0787 24.6013 12.5326 24.7645 13 24.7577Z" fill="#282843"/>
<path d="M23.4798 20.0995C22.7833 19.4786 22.1736 18.7669 21.667 17.9834C21.114 16.9019 20.7825 15.7208 20.692 14.5095V10.9417C20.6891 10.5083 20.6504 10.0759 20.5765 9.64893C20.008 9.53529 19.4617 9.33043 18.9587 9.04226C19.1504 9.65965 19.2478 10.3025 19.2476 10.9489V14.5167C19.3361 15.9944 19.7426 17.4355 20.4392 18.7417C20.9379 19.5318 21.5295 20.2592 22.2015 20.9084H3.70535C4.37731 20.2592 4.96895 19.5318 5.46757 18.7417C6.16423 17.4355 6.57071 15.9944 6.65924 14.5167V10.9417C6.65544 10.1059 6.81654 9.27749 7.13333 8.504C7.45012 7.73052 7.91638 7.02711 8.50539 6.43407C9.09441 5.84103 9.79462 5.37 10.5659 5.04795C11.3372 4.7259 12.1645 4.55915 13.0003 4.55726C14.2236 4.55824 15.4194 4.92 16.4381 5.59726C16.3258 5.18486 16.2628 4.76061 16.2503 4.33337V3.87837C15.4962 3.50741 14.6861 3.26339 13.8526 3.15615V2.24615C13.8526 1.99044 13.751 1.7452 13.5702 1.56438C13.3894 1.38356 13.1441 1.28198 12.8884 1.28198C12.6327 1.28198 12.3875 1.38356 12.2066 1.56438C12.0258 1.7452 11.9242 1.99044 11.9242 2.24615V3.19226C10.0578 3.45555 8.34965 4.38519 7.11512 5.80954C5.88059 7.2339 5.20304 9.0568 5.20757 10.9417V14.5095C5.11711 15.7208 4.78563 16.9019 4.23257 17.9834C3.73487 18.7651 3.13493 19.4767 2.44868 20.0995C2.37164 20.1672 2.3099 20.2505 2.26756 20.3439C2.22522 20.4373 2.20325 20.5386 2.20312 20.6411V21.6234C2.20312 21.8149 2.27922 21.9986 2.41466 22.1341C2.5501 22.2695 2.7338 22.3456 2.92535 22.3456H23.0031C23.1947 22.3456 23.3784 22.2695 23.5138 22.1341C23.6493 21.9986 23.7253 21.8149 23.7253 21.6234V20.6411C23.7252 20.5386 23.7033 20.4373 23.6609 20.3439C23.6186 20.2505 23.5568 20.1672 23.4798 20.0995Z" fill="#282843"/>
<path d="M20 12C22.7614 12 25 9.76142 25 7C25 4.23858 22.7614 2 20 2C17.2386 2 15 4.23858 15 7C15 9.76142 17.2386 12 20 12Z" fill="#DF253E"/>
</g>
<defs>
<clipPath id="clip0_2_268">
<rect width="26" height="26" fill="white"/>
</clipPath>
</defs>
</svg>
