<svg width="26" height="26" viewBox="0 0 26 26" fill="none" xmlns="http://www.w3.org/2000/svg">
<path d="M11.7812 13C11.7812 13.3232 11.9096 13.6332 12.1382 13.8618C12.3668 14.0903 12.6768 14.2188 13 14.2188C13.3232 14.2188 13.6332 14.0903 13.8618 13.8618C14.0903 13.6332 14.2187 13.3232 14.2187 13C14.2187 12.6768 14.0903 12.3668 13.8618 12.1382C13.6332 11.9097 13.3232 11.7812 13 11.7812C12.6768 11.7812 12.3668 11.9097 12.1382 12.1382C11.9096 12.3668 11.7812 12.6768 11.7812 13ZM16.8594 13C16.8594 13.3232 16.9878 13.6332 17.2163 13.8618C17.4449 14.0903 17.7549 14.2188 18.0781 14.2188C18.4013 14.2188 18.7113 14.0903 18.9399 13.8618C19.1685 13.6332 19.2969 13.3232 19.2969 13C19.2969 12.6768 19.1685 12.3668 18.9399 12.1382C18.7113 11.9097 18.4013 11.7812 18.0781 11.7812C17.7549 11.7812 17.4449 11.9097 17.2163 12.1382C16.9878 12.3668 16.8594 12.6768 16.8594 13ZM6.70312 13C6.70312 13.3232 6.83152 13.6332 7.06008 13.8618C7.28864 14.0903 7.59863 14.2188 7.92187 14.2188C8.2451 14.2188 8.55509 14.0903 8.78365 13.8618C9.01221 13.6332 9.14062 13.3232 9.14062 13C9.14062 12.6768 9.01221 12.3668 8.78365 12.1382C8.55509 11.9097 8.2451 11.7812 7.92187 11.7812C7.59863 11.7812 7.28864 11.9097 7.06008 12.1382C6.83152 12.3668 6.70312 12.6768 6.70312 13ZM23.4914 8.59219C22.9176 7.22871 22.0949 6.00488 21.0463 4.95371C20.005 3.90862 18.7688 3.07791 17.4078 2.50859C16.0113 1.92207 14.5285 1.625 13 1.625H12.9492C11.4105 1.63262 9.92011 1.9373 8.51855 2.53652C7.16918 3.11168 5.94461 3.94387 4.91308 4.98672C3.8746 6.03535 3.05956 7.2541 2.49589 8.6125C1.91191 10.0191 1.61737 11.5146 1.62499 13.0533C1.63361 14.8166 2.05077 16.5539 2.84374 18.1289V21.9883C2.84374 22.298 2.96679 22.5951 3.18583 22.8142C3.40487 23.0332 3.70195 23.1562 4.01171 23.1562H7.87362C9.44859 23.9492 11.1859 24.3664 12.9492 24.375H13.0025C14.5234 24.375 15.9986 24.0805 17.3875 23.5041C18.7416 22.9416 19.9732 22.1205 21.0133 21.0869C22.0619 20.0484 22.8871 18.8348 23.4635 17.4814C24.0627 16.0799 24.3674 14.5895 24.375 13.0508C24.3826 11.5045 24.083 10.0039 23.4914 8.59219ZM19.6549 19.7133C17.875 21.4754 15.5137 22.4453 13 22.4453H12.9568C11.4258 22.4377 9.90487 22.0568 8.56171 21.3408L8.34843 21.2266H4.77343V17.6516L4.65917 17.4383C3.94316 16.0951 3.5623 14.5742 3.55468 13.0432C3.54452 10.5117 4.51191 8.13516 6.28671 6.34512C8.05898 4.55508 10.4279 3.56484 12.9594 3.55469H13.0025C14.2721 3.55469 15.5035 3.80098 16.6639 4.28848C17.7963 4.76328 18.8119 5.44629 19.6853 6.31973C20.5562 7.19062 21.2418 8.20879 21.7166 9.34121C22.2092 10.5143 22.4555 11.7584 22.4504 13.0432C22.4351 15.5721 21.4424 17.941 19.6549 19.7133Z" fill="#282843"/>
<circle cx="21" cy="6" r="5" fill="#DF253E"/>
</svg>
